<?xml version="1.0" encoding="utf-8"?><svg version="1.1" xmlns="http://www.w3.org/2000/svg" xmlns:xlink="http://www.w3.org/1999/xlink"
     viewBox="0, 0, 177, 84" width="177px" height="84px"><g transform="translate(1, 1)" fill="none"><rect width="175" height="82" rx="6" ry="6" stroke="#000000" stroke-opacity="0.2"/><g id="Toolbar"><defs><linearGradient x1="50%" x2="50%" y2="100%" id="toolbar"><stop stop-color="#FFFFFF" offset="0%"/><stop stop-color="#F5F4F5" offset="5%"/><stop stop-color="#D3D3D3" offset="100%"/></linearGradient></defs><path d="M6,0 L169,0 C 172 0, 175 3, 175 6 L175,22 L0,22 L0,16 L0,6 C 0 3, 3 0, 6 0"
            fill="url(#toolbar)"/><text x="87.5" y="16" font-family="HelveticaNeue, Helvetica Neue" font-size="13"
            letter-spacing="0.4" fill="#464646" text-anchor="middle">
        Views
      </text><g transform="translate(9, 6)"><g><circle stroke="#E33E32" stroke-width="1" cx="5" cy="5" r="5.5"/><circle fill="#FF5F52" cx="5" cy="5" r="5.25"/></g><g><circle stroke="#E2A100" stroke-width="1" cx="25" cy="5" r="5.5"/><circle fill="#FFBE05" cx="25" cy="5" r="5.25"/></g><g><circle stroke="#17B230" stroke-width="1" cx="45" cy="5" r="5.5"/><circle fill="#15CC35" cx="45" cy="5" r="5.25"/></g></g></g><path d="M175,22 L175,76 C 175 79, 172 82, 169 82 L6,82 C 3 82, 0 79, 0 76 L0,22 Z" fill="#FFFFFF"/><line y1="22" x2="175" y2="22" stroke="#7E7E7E" shape-rendering="crispEdges"/><g transform="translate(5, 28)" fill="#000000"><text font-family="Lucida Sans Typewriter,Lucida Console,monaco,Bitstream Vera Sans Mono,monospace"
            font-size="12px" x="0" y="10">
        $ 67 people now know
      </text><text font-family="Lucida Sans Typewriter,Lucida Console,monaco,Bitstream Vera Sans Mono,monospace"
            font-size="12px" x="0" y="25">
        that Tech Nation sucks
      </text></g></g></svg>