<svg width="37px" height="36px" version="1.1" xmlns="http://www.w3.org/2000/svg" xmlns:xlink="http://www.w3.org/1999/xlink">
<rect transform="translate(1, 0)" fill="#0369A0" width="36" height="36" rx="2"/>
<g fill="white">
<rect fill="#0077B5" width="36" height="36" rx="2"/>
<path d="M8.075,4.956 C9.783,4.956 11.17,6.343 11.17,8.052 C11.17,9.762 9.783,11.149 8.075,11.149 C6.36,11.149 4.978,9.762 4.978,8.052 C4.978,6.343 6.36,4.956 8.075,4.956 L8.075,4.956 Z M5.402,30.676 L10.746,30.676 L10.746,13.496 L5.402,13.496 L5.402,30.676 Z"/>
<path d="M14.096,13.496 L19.214,13.496 L19.214,15.845 L19.287,15.845 C19.999,14.494 21.742,13.07 24.34,13.07 C29.745,13.07 30.744,16.627 30.744,21.254 L30.744,30.676 L25.406,30.676 L25.406,22.321 C25.406,20.329 25.371,17.766 22.631,17.766 C19.853,17.766 19.429,19.937 19.429,22.179 L19.429,30.676 L14.096,30.676 L14.096,13.496"/>
</g>
</svg>